<svg xmlns="http://www.w3.org/2000/svg" viewBox="0 0 512 476.69"><defs><style>.cls-1{fill:#1a9172;}.cls-2{fill:#be7c6d;}.cls-3{fill:#3d6f44;}.cls-4{fill:#61b872;}.cls-5{fill:#23a24d;}</style></defs><title>Asset 1</title><g id="Layer_2" data-name="Layer 2"><g id="Layer_1-2" data-name="Layer 1"><path class="cls-1" d="M273.66,194.21c0-9.82-14.3-27.64-8.83-35V44.14a44.14,44.14,0,1,0-88.28,0V123.9c5.47,7.36,0,33.69,0,43.5V256c8.06-10.83,38.51-18,53-18a44,44,0,0,1,35.31,18Z"/><path class="cls-2" d="M220.69,229.52a8.84,8.84,0,0,1-8.83-8.83V79.45a8.83,8.83,0,0,1,17.66,0V220.69A8.84,8.84,0,0,1,220.69,229.52Z"/><path class="cls-2" d="M220.69,229.52a8.83,8.83,0,0,1-6.24-15.07l17.66-17.66a8.83,8.83,0,1,1,12.48,12.49l-17.66,17.65A8.81,8.81,0,0,1,220.69,229.52Z"/><path class="cls-2" d="M220.69,150.07A8.83,8.83,0,0,1,214.45,135l17.66-17.66a8.83,8.83,0,1,1,12.48,12.49l-17.66,17.65A8.81,8.81,0,0,1,220.69,150.07Z"/><path class="cls-2" d="M220.69,185.38a8.77,8.77,0,0,1-6.24-2.59l-17.66-17.65a8.83,8.83,0,1,1,12.49-12.48l17.65,17.65a8.83,8.83,0,0,1-6.24,15.07Z"/><path class="cls-3" d="M88.28,35.31A44.27,44.27,0,0,0,44.14,79.45V194.21c0,.3.09.58.09.89,2.83-.58,5.74,87.38,8.73,87.38,24,0,43.57-41.52,44.06-17.65,0,0,.06-27.38.08-27.38l35.31,53.86V79.45A44.26,44.26,0,0,0,88.28,35.31Z"/><path class="cls-4" d="M423.72,35.31a44.26,44.26,0,0,0-44.13,44.14v27.38l8.82,193.3h.09c.49-23.86,46.56-61.8,70.54-61.8,3,0,5.9-43.82,8.73-43.24,0-.31.09-.59.09-.89V79.45A44.27,44.27,0,0,0,423.72,35.31Z"/><path class="cls-3" d="M326.62,353.1V150.33a43.69,43.69,0,0,0-26.48-9.09A44.27,44.27,0,0,0,256,185.38v53.28c5.47,7.36-8.83,16.35-8.83,26.17V353.1c0,6.77,16,13.11,13.24,18.85a43.77,43.77,0,0,0,75,7.32A43.71,43.71,0,0,1,326.62,353.1Z"/><path class="cls-4" d="M53,397.24A44.26,44.26,0,0,1,8.83,353.1V238.34a44.14,44.14,0,0,1,88.27,0V353.1A44.27,44.27,0,0,1,53,397.24Z"/><path class="cls-2" d="M53,335.45a8.83,8.83,0,0,1-6.24-15.07l17.66-17.66a8.83,8.83,0,0,1,12.48,12.49L59.21,332.86A8.83,8.83,0,0,1,53,335.45Z"/><path class="cls-2" d="M53,370.76a8.84,8.84,0,0,1-6.24-2.59L29.07,350.52A8.82,8.82,0,1,1,41.55,338l17.66,17.65A8.83,8.83,0,0,1,53,370.76Z"/><path class="cls-2" d="M141.24,335.45A8.83,8.83,0,0,1,135,320.38l17.66-17.66a8.83,8.83,0,0,1,12.48,12.49l-17.66,17.65A8.81,8.81,0,0,1,141.24,335.45Z"/><path class="cls-2" d="M141.24,370.76a8.81,8.81,0,0,1-6.24-2.59l-17.66-17.65A8.83,8.83,0,1,1,129.83,338l17.65,17.65a8.83,8.83,0,0,1-6.24,15.07Z"/><path class="cls-2" d="M141.24,256A8.83,8.83,0,0,1,135,240.93l17.66-17.65a8.82,8.82,0,0,1,12.48,12.48l-17.66,17.65A8.77,8.77,0,0,1,141.24,256Z"/><path class="cls-2" d="M141.24,291.31a8.77,8.77,0,0,1-6.24-2.59l-17.66-17.65a8.83,8.83,0,0,1,12.49-12.48l17.65,17.65a8.83,8.83,0,0,1-6.24,15.07Z"/><path class="cls-4" d="M220.69,397.24a44.27,44.27,0,0,1-44.14-44.14V264.83a44.14,44.14,0,0,1,88.28,0V353.1A44.27,44.27,0,0,1,220.69,397.24Z"/><path class="cls-2" d="M220.69,361.93a8.83,8.83,0,0,1-6.24-15.07l17.66-17.65a8.82,8.82,0,1,1,12.48,12.48l-17.66,17.65A8.77,8.77,0,0,1,220.69,361.93Z"/><path class="cls-2" d="M53,436.34a8.83,8.83,0,0,1-8.82-8.83V273.66a8.83,8.83,0,1,1,17.65,0V427.51A8.83,8.83,0,0,1,53,436.34Z"/><path class="cls-1" d="M459,397.24a44.26,44.26,0,0,0,44.13-44.14V238.34a44.14,44.14,0,0,0-88.27,0V353.1A44.27,44.27,0,0,0,459,397.24Z"/><path class="cls-2" d="M459,335.45a8.83,8.83,0,0,1-6.25-2.59l-17.65-17.65a8.83,8.83,0,0,1,12.48-12.49l17.66,17.66A8.83,8.83,0,0,1,459,335.45Z"/><path class="cls-2" d="M459,370.76a8.83,8.83,0,0,1-6.25-15.07L470.45,338a8.82,8.82,0,1,1,12.48,12.48l-17.65,17.65A8.84,8.84,0,0,1,459,370.76Z"/><path class="cls-5" d="M370.76,397.24A44.27,44.27,0,0,0,414.9,353.1v-203a44.14,44.14,0,1,0-88.28,0v203A44.27,44.27,0,0,0,370.76,397.24Z"/><path class="cls-2" d="M370.76,476.69a8.84,8.84,0,0,1-8.83-8.83V185.38a8.83,8.83,0,0,1,17.66,0V467.86A8.84,8.84,0,0,1,370.76,476.69Z"/><path class="cls-2" d="M370.76,335.45a8.81,8.81,0,0,1-6.24-2.59l-17.66-17.65a8.83,8.83,0,0,1,12.48-12.49L377,320.38a8.83,8.83,0,0,1-6.24,15.07Z"/><path class="cls-2" d="M370.76,370.76a8.83,8.83,0,0,1-6.24-15.07L382.17,338a8.83,8.83,0,1,1,12.49,12.48L377,368.17A8.81,8.81,0,0,1,370.76,370.76Z"/><path class="cls-2" d="M370.76,256a8.77,8.77,0,0,1-6.24-2.59l-17.66-17.65a8.82,8.82,0,0,1,12.48-12.48L377,240.93A8.83,8.83,0,0,1,370.76,256Z"/><path class="cls-2" d="M370.76,291.31a8.83,8.83,0,0,1-6.24-15.07l17.65-17.65a8.83,8.83,0,0,1,12.49,12.48L377,288.72A8.77,8.77,0,0,1,370.76,291.31Z"/><path class="cls-2" d="M300.14,432.55a8.83,8.83,0,0,1-8.83-8.83V185.38a8.83,8.83,0,1,1,17.65,0V423.72A8.82,8.82,0,0,1,300.14,432.55Z"/><path class="cls-2" d="M300.14,335.45a8.81,8.81,0,0,1-6.24-2.59l-17.66-17.65a8.83,8.83,0,0,1,12.48-12.49l17.66,17.66a8.83,8.83,0,0,1-6.24,15.07Z"/><path class="cls-2" d="M300.14,256a8.77,8.77,0,0,1-6.24-2.59l-17.66-17.65a8.82,8.82,0,1,1,12.48-12.48l17.66,17.65A8.83,8.83,0,0,1,300.14,256Z"/><path class="cls-2" d="M459,436.34a8.83,8.83,0,0,1-8.83-8.83V273.66a8.83,8.83,0,1,1,17.65,0V427.51A8.83,8.83,0,0,1,459,436.34Z"/><path class="cls-5" d="M176.55,353.1V264.83a43.71,43.71,0,0,1,8.83-26.17V150.07a44.14,44.14,0,1,0-88.28,0v203A44,44,0,0,0,181,372,43.57,43.57,0,0,1,176.55,353.1Z"/><path class="cls-2" d="M141.24,457.3a8.84,8.84,0,0,1-8.83-8.83V185.38a8.83,8.83,0,1,1,17.66,0V448.47A8.84,8.84,0,0,1,141.24,457.3Z"/><path class="cls-2" d="M220.69,454.26a8.84,8.84,0,0,1-8.83-8.83V300.14a8.83,8.83,0,0,1,17.66,0V445.43A8.83,8.83,0,0,1,220.69,454.26Z"/><path class="cls-4" d="M396.44,448.35a17.16,17.16,0,0,1,7.29,1.86c8-19.33,21.88-26.49,37.65-26.49S471,430.88,479,450.21a17.16,17.16,0,0,1,7.29-1.86c14.18,0,25.68,6,25.68,28.34H370.76C370.76,454.4,382.25,448.35,396.44,448.35Z"/><path class="cls-4" d="M140.44,448.35a17.16,17.16,0,0,1,7.29,1.86c8-19.33,21.88-26.49,37.65-26.49S215,430.88,223,450.21a17.16,17.16,0,0,1,7.29-1.86c14.18,0,25.68,6,25.68,28.34H114.76C114.76,454.4,126.25,448.35,140.44,448.35Z"/><path class="cls-5" d="M128,450.65a31.73,31.73,0,0,0-12.44-2.3,17.16,17.16,0,0,0-7.29,1.86c-8-19.33-21.88-26.49-37.65-26.49S41,430.88,33,450.21a17.16,17.16,0,0,0-7.29-1.86c-14.19,0-25.68,6-25.68,28.34H114.76C114.76,461.53,120.13,454,128,450.65Z"/><path class="cls-3" d="M345.08,448.35a17.16,17.16,0,0,0-7.29,1.86c-8-19.33-21.88-26.49-37.65-26.49s-29.63,7.16-37.65,26.49a17.16,17.16,0,0,0-7.29-1.86,31.73,31.73,0,0,0-12.44,2.3c7.87,3.34,13.24,10.88,13.24,26H370.76C370.76,454.4,359.27,448.35,345.08,448.35Z"/></g></g></svg>