<svg xmlns="http://www.w3.org/2000/svg" viewBox="0 0 917.79 199.8"><defs><style>.cls-1{fill:#00dd9b;}</style></defs><title>Asset 6</title><g id="Layer_2" data-name="Layer 2"><g id="Layer_1-2" data-name="Layer 1"><path class="cls-1" d="M142.8,16.4V0h16.4V16.4Zm0,137.6V38h16.4V154Z"/><path class="cls-1" d="M203.6,199.8V183.2H276a7.85,7.85,0,0,0,7.8-7.8V154H206.4a24.24,24.24,0,0,1-24.2-24.2V62.2A24.24,24.24,0,0,1,206.4,38H276a23.23,23.23,0,0,1,17.2,7.1,23.49,23.49,0,0,1,7,17.1V175.4a23.74,23.74,0,0,1-7,17.3,23.23,23.23,0,0,1-17.2,7.1Zm2.8-62.2H276a7.85,7.85,0,0,0,7.8-7.8V62.2a7.85,7.85,0,0,0-7.8-7.8H206.4a7.85,7.85,0,0,0-7.8,7.8v67.6a7.85,7.85,0,0,0,7.8,7.8Z"/><path class="cls-1" d="M321,16.4V0h16.4V16.4ZM321,154V38h16.4V154Z"/><path class="cls-1" d="M364,154V10H477.8a23.15,23.15,0,0,1,17,7,23.17,23.17,0,0,1,7,17V64.6a22.12,22.12,0,0,1-.7,5.5,26.12,26.12,0,0,1-1.9,5.1,86.57,86.57,0,0,1,6.6,11.4,23.41,23.41,0,0,1,2.2,9.8V130a23.9,23.9,0,0,1-24,24Zm24-81.6h89.8a7.2,7.2,0,0,0,5.4-2.3,7.71,7.71,0,0,0,2.2-5.5V34a7.71,7.71,0,0,0-2.2-5.5,7.2,7.2,0,0,0-5.4-2.3H388a7.85,7.85,0,0,0-7.8,7.8V64.6a7.85,7.85,0,0,0,7.8,7.8Zm0,65.4h96a7.85,7.85,0,0,0,7.8-7.8V96.4a7.85,7.85,0,0,0-7.8-7.8H388a7.85,7.85,0,0,0-7.8,7.8V130a7.85,7.85,0,0,0,7.8,7.8Z"/><path class="cls-1" d="M553,154a24.24,24.24,0,0,1-24.2-24.2V62.2A24.24,24.24,0,0,1,553,38h69.6a23.55,23.55,0,0,1,17.3,7.1A23.27,23.27,0,0,1,647,62.2v67.6a23.27,23.27,0,0,1-7.1,17.1,23.55,23.55,0,0,1-17.3,7.1Zm0-16.4h69.6a7.85,7.85,0,0,0,7.8-7.8V62.2a7.85,7.85,0,0,0-7.8-7.8H553a7.85,7.85,0,0,0-7.8,7.8v67.6a7.85,7.85,0,0,0,7.8,7.8Z"/><path class="cls-1" d="M687.39,154a24.24,24.24,0,0,1-24.2-24.2V62.2A24.24,24.24,0,0,1,687.39,38H757a23.55,23.55,0,0,1,17.3,7.1,23.31,23.31,0,0,1,7.1,17.1v67.6a23.31,23.31,0,0,1-7.1,17.1A23.55,23.55,0,0,1,757,154Zm0-16.4H757a7.85,7.85,0,0,0,7.8-7.8V62.2a7.85,7.85,0,0,0-7.8-7.8h-69.6a7.85,7.85,0,0,0-7.8,7.8v67.6a7.85,7.85,0,0,0,7.8,7.8Z"/><path class="cls-1" d="M802.19,154V0h16.4V87.8h32L896.19,38h21.6v.2L865.19,96l52.4,57.8v.2h-21.4l-45.6-49.8h-32V154Z"/><path class="cls-1" d="M95.34,10H6V34H3.17A3.12,3.12,0,0,0,0,36.84,3,3,0,0,0,3,40H14.88a3.08,3.08,0,0,1,3.06,2.41A3,3,0,0,1,15,46H9a3,3,0,0,0-3,3V64H3.17A3.12,3.12,0,0,0,0,66.84,3,3,0,0,0,3,70H14.88a3.08,3.08,0,0,1,3.06,2.41A3,3,0,0,1,15,76H9a3,3,0,0,0-3,3V94H3.17A3.12,3.12,0,0,0,0,96.84,3,3,0,0,0,3,100H14.88a3.08,3.08,0,0,1,3.06,2.41A3,3,0,0,1,15,106H9a3,3,0,0,0-3,3v15H3.17A3.12,3.12,0,0,0,0,126.84,3,3,0,0,0,3,130H14.88a3.08,3.08,0,0,1,3.06,2.41A3,3,0,0,1,15,136H9a3,3,0,0,0-3,3v15H95.34A24.66,24.66,0,0,0,120,129.34V34.66A24.66,24.66,0,0,0,95.34,10Z"/></g></g></svg>