<svg xmlns="http://www.w3.org/2000/svg" viewBox="0 0 200 200"><defs><style>.cls-1{fill:#00dd9b;}.cls-2{fill:#fff;}</style></defs><title>Asset 1</title><g id="Layer_2" data-name="Layer 2"><g id="Layer_1-2" data-name="Layer 1"><rect class="cls-1" width="200" height="200" rx="20"/><path class="cls-2" d="M152.93,15.6H47.43A14.08,14.08,0,0,0,33.37,29.67V43.73H29.85a3.52,3.52,0,0,0,0,7H43.92a3.52,3.52,0,0,1,0,7h-7a3.51,3.51,0,0,0-3.51,3.52V78.9H29.85a3.52,3.52,0,1,0,0,7H43.92a3.52,3.52,0,0,1,0,7h-7a3.51,3.51,0,0,0-3.51,3.51v17.59H29.85a3.52,3.52,0,1,0,0,7H43.92a3.52,3.52,0,0,1,0,7h-7a3.52,3.52,0,0,0-3.51,3.52v17.58H29.85a3.52,3.52,0,1,0,0,7H43.92a3.52,3.52,0,0,1,0,7h-7a3.51,3.51,0,0,0-3.51,3.52v3.51A14.08,14.08,0,0,0,47.43,184.4h105.5A14.08,14.08,0,0,0,167,170.33V29.67A14.08,14.08,0,0,0,152.93,15.6Z"/><polygon class="cls-2" points="50.23 184.4 33.37 169.2 33.37 184.4 50.23 184.4"/><polygon class="cls-2" points="51.38 15.6 33.37 31.04 33.37 15.6 51.38 15.6"/></g></g></svg>