<svg xmlns="http://www.w3.org/2000/svg" viewBox="0 0 280.88 512"><defs><style>.cls-1{fill:#00dd9b;}</style></defs><title>Asset 1</title><g id="Layer_2" data-name="Layer 2"><g id="Capa_1" data-name="Capa 1"><g id="Layer_1-2" data-name="Layer 1-2"><path class="cls-1" d="M205.81,152.58H76.17a17.3,17.3,0,0,0-17.28,17.27v17.29H54.62a4.32,4.32,0,1,0,0,8.64H71.86a4.33,4.33,0,0,1,0,8.65H63.2a4.26,4.26,0,0,0-4.26,4.26V230.3H54.68a4.32,4.32,0,0,0,0,8.64H71.86a4.32,4.32,0,0,1,0,8.64H63.2a4.26,4.26,0,0,0-4.26,4.26v21.61H54.68a4.33,4.33,0,1,0,0,8.65H71.86a4.32,4.32,0,0,1,0,8.63H63.2A4.27,4.27,0,0,0,58.94,295v21.8H54.68a4.32,4.32,0,0,0,0,8.64H71.86a4.33,4.33,0,0,1,0,8.65H63.2a4.26,4.26,0,0,0-4.26,4.26v4.27A17.31,17.31,0,0,0,76.17,360H205.81A17.3,17.3,0,0,0,223,342.7V169.85A17.28,17.28,0,0,0,205.81,152.58Z"/><polygon class="cls-1" points="79.6 359.99 58.89 341.31 58.89 359.99 79.6 359.99"/><polygon class="cls-1" points="81.02 152.58 58.89 171.54 58.89 152.58 81.02 152.58"/><path class="cls-1" d="M227.3,0H54.4C25,0,0,24,0,53.37V458.68C0,488.08,24.46,512,53.86,512l173.31-.2a53.49,53.49,0,0,0,53.45-53.32l.26-405.13A53.38,53.38,0,0,0,227.47,0ZM115.88,32h50.19a8,8,0,1,1,0,16H115.88a8,8,0,1,1,0-16ZM85.74,34.55a8.25,8.25,0,0,1,11.36,0,8,8,0,0,1-5.68,13.68,8,8,0,0,1-8-8A8,8,0,0,1,85.74,34.55Zm53.63,461.58a23.94,23.94,0,1,1,24-23.94,23.94,23.94,0,0,1-24,23.94ZM256,432H28V76H256V432Z"/></g></g></g></svg>