<svg xmlns="http://www.w3.org/2000/svg" viewBox="0 0 512 512"><defs><style>.cls-1{fill:#bcd151;}.cls-2{fill:#8d9f25;}.cls-3{fill:#f6bb93;}.cls-4{fill:#e49775;}.cls-5{fill:#52668d;}.cls-6{fill:#243b5d;}.cls-7{fill:#7cccf2;}.cls-8{fill:#4facdb;}.cls-9{fill:#828c1f;}.cls-10{fill:#ff6e6e;}</style></defs><title>Asset 2</title><g id="Layer_2" data-name="Layer 2"><g id="Capa_1" data-name="Capa 1"><path class="cls-1" d="M242.44,395.46h14c25.15-32.25,119.13-13.12,88.52,94.87h-191C123.3,382.34,217.28,363.21,242.44,395.46Z"/><path class="cls-2" d="M276,383.14c30.51,7.82,59,40.62,40.11,107.19H345C370,402.12,311.83,373.19,276,383.14Z"/><path class="cls-3" d="M249.44,419.65h0a28.86,28.86,0,0,0,28.85-28.86V355.07H220.58v35.72A28.86,28.86,0,0,0,249.44,419.65Z"/><path class="cls-4" d="M220.58,383.55a184.72,184.72,0,0,0,57.71,3.28V355.07H220.58v28.48Z"/><path class="cls-3" d="M150.26,295.94h32.25V247.18H150.26a24.38,24.38,0,0,0-24.38,24.38h0A24.39,24.39,0,0,0,150.26,295.94Z"/><path class="cls-3" d="M348.61,295.94H316.37V247.18h32.24A24.38,24.38,0,0,1,373,271.56h0A24.39,24.39,0,0,1,348.61,295.94Z"/><path class="cls-5" d="M162.66,286.28c-6-26-14.9-60.73-18.91-77.65C118,186.27,112.67,139,128.24,105.41a8.17,8.17,0,0,1,12.57-2.93c10.24,8.32,30.43,16.21,68.17,2.36,73.51-27,135.4,9.34,139,27.93,4,0,23.27,2.73,23.27,21.71,0,16.15-26.53,102.14-38,131.8Z"/><path class="cls-6" d="M347.94,132.76c-2.79-14.6-41.62-40.15-93.8-37.33,39.38,2.4,67.48,24.25,69.72,37.34,3.55,0,20.82,2.73,20.82,21.71,0,16.15-23.74,102.14-34,131.8h22.53c11.44-29.66,38-115.65,38-131.8C371.21,135.5,351.91,132.76,347.94,132.76Z"/><path class="cls-3" d="M158.51,319.16c0,64.22,181.86,64.22,181.86,0,0-36.8-4.92-99.1-15.64-123.32a35.4,35.4,0,0,0-12.62-14.36,23.24,23.24,0,0,0-11.93-3.58c-4.58,0-9,1.46-13.52,3.58-11.61,5.49-23.32,15.33-37.22,15.33s-25.62-9.84-37.23-15.33c-4.47-2.12-8.94-3.58-13.51-3.58a23.25,23.25,0,0,0-11.94,3.58,35.47,35.47,0,0,0-12.64,14.39C163.44,220,158.51,281.66,158.51,319.16Z"/><path class="cls-4" d="M324.73,195.84a35.4,35.4,0,0,0-12.62-14.36,23.24,23.24,0,0,0-11.93-3.58,27.61,27.61,0,0,0-9.85,2,23.77,23.77,0,0,1,2.62,1.56c4,2.71,8.81,8.61,11,14.36,9.39,24.22,13.69,86.52,13.69,123.32,0,30.68-36.34,46.7-74.29,48.06,47.39,1.49,97-14.53,97-48.06C340.37,282.36,335.45,220.06,324.73,195.84Z"/><path class="cls-6" d="M292.87,273.94a6,6,0,0,1-6-6V258.7a6,6,0,1,1,11.92,0V268A6,6,0,0,1,292.87,273.94Z"/><path class="cls-6" d="M206,273.94a6,6,0,0,1-6-6V258.7a6,6,0,1,1,11.93,0V268A6,6,0,0,1,206,273.94Z"/><path class="cls-6" d="M292.38,246.93a31.57,31.57,0,0,1-18.4-5.62,6,6,0,0,1,7-9.65c6.17,4.48,16.6,4.48,22.77,0a6,6,0,1,1,7,9.65A31.56,31.56,0,0,1,292.38,246.93Z"/><path class="cls-6" d="M221.39,246.93a6,6,0,0,1-3.5-1.14c-6.17-4.48-16.61-4.48-22.78,0a6,6,0,1,1-7-9.65c10.31-7.49,26.47-7.49,36.78,0a6,6,0,0,1-3.5,10.79Z"/><path class="cls-7" d="M398.36,104.08a56.36,56.36,0,0,0-15.94,111.49,41.51,41.51,0,0,1-10.14,14.73,3,3,0,0,0,2.25,5.23,40.58,40.58,0,0,0,5.53-.76,41.15,41.15,0,0,0,27.61-20.25,56.37,56.37,0,0,0-9.31-110.44Z"/><path class="cls-8" d="M398.36,104.08a56.07,56.07,0,0,0-11,0l.24,0c25.93,3.16,44.63,31.36,41.64,62.57-2.26,23.52-16.17,41.95-33.94,47.87-4.66,10.06-12.75,17.72-22.82,20.25l-.15,0a2.87,2.87,0,0,0,2.19.73,40.58,40.58,0,0,0,5.53-.76,41.15,41.15,0,0,0,27.61-20.25,56.37,56.37,0,0,0-9.31-110.44Z"/><path class="cls-2" d="M173.28,490.33V460.78a6,6,0,1,1,11.92,0v29.55Zm152.32,0V460.78a6,6,0,0,0-11.92,0v29.55Z"/><path class="cls-9" d="M325.6,460.78a5.94,5.94,0,0,0-3.54-5.44,151.11,151.11,0,0,1-6,35h9.5V460.78Z"/><path class="cls-6" d="M389.76,196.71a6,6,0,0,1-6-6V190a6,6,0,0,1,11.92,0v.8A6,6,0,0,1,389.76,196.71Z"/><path class="cls-6" d="M389.76,180a6,6,0,0,1-6-6V163.52a9.17,9.17,0,0,1,9.16-9.16h2.22a9.58,9.58,0,0,0,9.56-10.2,9.59,9.59,0,0,0-18.63-2.49,6,6,0,1,1-11.28-3.87,21.51,21.51,0,0,1,41.81,5.62,21.3,21.3,0,0,1-5.79,16.09,21.62,21.62,0,0,1-15.13,6.77V174A6,6,0,0,1,389.76,180Z"/><path class="cls-6" d="M287.93,322.58a5.94,5.94,0,0,1-4.21-1.74,16.82,16.82,0,0,0-23.77,0,6,6,0,1,1-8.43-8.44,28.77,28.77,0,0,1,40.63,0,6,6,0,0,1-4.22,10.18Z"/><path class="cls-10" d="M256,512A256,256,0,0,1,75,75,256,256,0,0,1,437,437,254.33,254.33,0,0,1,256,512Zm0-489A232.36,232.36,0,0,0,91.17,91.17C.28,182.06.28,329.94,91.17,420.83s238.77,90.89,329.66,0,90.89-238.77,0-329.66h0A232.36,232.36,0,0,0,256,23Z"/><rect class="cls-10" x="244.27" y="11.73" width="22.89" height="489.11" transform="translate(-106.33 255.88) rotate(-45)"/></g></g></svg>